<svg width="530" height="622" viewBox="0 0 530 622" fill="none" xmlns="http://www.w3.org/2000/svg">
<path d="M147.55 84.3L4 6V293.1H483.587L340.038 211.538H147.55V84.3Z" fill="#620AF2"/>
<path d="M526 332.25L36.625 328.988L183.438 410.55H379.188V537.788L526 616.088V332.25Z" fill="#620AF2"/>
<path d="M147.55 436.65L4 351.825V537.788L147.55 612.825V436.65Z" fill="#620AF2"/>
<path d="M379.188 188.7V9.2625L526 81.0375V276.788L379.188 188.7Z" fill="#620AF2"/>
<path d="M147.55 84.3L4 6V293.1H483.587L340.038 211.538H147.55V84.3Z" stroke="white" stroke-width="6.525"/>
<path d="M526 332.25L36.625 328.988L183.438 410.55H379.188V537.788L526 616.088V332.25Z" stroke="white" stroke-width="6.525"/>
<path d="M147.55 436.65L4 351.825V537.788L147.55 612.825V436.65Z" stroke="white" stroke-width="6.525"/>
<path d="M379.188 188.7V9.2625L526 81.0375V276.788L379.188 188.7Z" stroke="white" stroke-width="6.525"/>
</svg>
