<svg width="242" height="56" viewBox="0 0 242 56" fill="none" xmlns="http://www.w3.org/2000/svg">
<path d="M62.1399 41.8195V21.821H66.5652V29.8487H75.7276V21.821H80.1812V41.8195H75.7276V33.5081H66.5652V41.8195H62.1399ZM85.0687 31.8061C85.0687 29.7258 85.4564 27.9198 86.2317 26.388C87.026 24.8373 88.1607 23.6364 89.6357 22.7854C91.1108 21.9344 92.8601 21.5089 94.8836 21.5089C96.9071 21.5089 98.6564 21.9344 100.131 22.7854C101.607 23.6364 102.741 24.8373 103.535 26.388C104.349 27.9198 104.755 29.7164 104.755 31.7777C104.755 33.8768 104.349 35.7018 103.535 37.2525C102.741 38.7843 101.607 39.9851 100.131 40.855C98.6564 41.7061 96.9071 42.1316 94.8836 42.1316C92.8601 42.1316 91.1108 41.7061 89.6357 40.855C88.1796 39.9851 87.0544 38.7748 86.2601 37.2241C85.4658 35.6734 85.0687 33.8674 85.0687 31.8061ZM89.6925 31.8061C89.6925 33.8674 90.118 35.4843 90.969 36.6568C91.8389 37.8104 93.1438 38.3871 94.8836 38.3871C96.5856 38.3871 97.881 37.8104 98.7698 36.6568C99.6587 35.4843 100.103 33.8674 100.103 31.8061C100.103 29.7258 99.6587 28.1184 98.7698 26.9837C97.8999 25.8301 96.6045 25.2533 94.8836 25.2533C93.1438 25.2533 91.8389 25.8301 90.969 26.9837C90.118 28.1184 89.6925 29.7258 89.6925 31.8061ZM116.866 42.1316C115.258 42.1316 113.755 41.933 112.355 41.5359C110.956 41.1387 109.764 40.5903 108.781 39.8906L110.086 36.4298C110.729 36.8648 111.41 37.2336 112.128 37.5361C112.847 37.8387 113.603 38.0751 114.398 38.2453C115.192 38.3966 116.024 38.4722 116.894 38.4722C118.256 38.4722 119.22 38.2642 119.787 37.8482C120.374 37.4321 120.667 36.9026 120.667 36.2596C120.667 35.6734 120.468 35.229 120.071 34.9264C119.693 34.6049 118.993 34.3307 117.972 34.1038L114.625 33.423C112.79 33.0447 111.419 32.4018 110.511 31.494C109.604 30.5863 109.15 29.376 109.15 27.8631C109.15 26.5771 109.49 25.4614 110.171 24.5158C110.852 23.5702 111.807 22.8327 113.036 22.3032C114.284 21.7737 115.74 21.5089 117.405 21.5089C118.823 21.5089 120.147 21.7075 121.376 22.1046C122.605 22.5018 123.617 23.0691 124.411 23.8066L123.106 27.0404C122.331 26.4164 121.461 25.953 120.497 25.6505C119.551 25.329 118.492 25.1682 117.319 25.1682C116.09 25.1682 115.145 25.3857 114.483 25.8207C113.84 26.2556 113.518 26.8513 113.518 27.6078C113.518 28.1751 113.717 28.6384 114.114 28.9977C114.511 29.3381 115.211 29.6124 116.213 29.8204L119.504 30.4728C121.376 30.851 122.766 31.4846 123.674 32.3734C124.581 33.2622 125.035 34.4442 125.035 35.9192C125.035 37.1674 124.695 38.2548 124.014 39.1814C123.352 40.1081 122.407 40.8361 121.177 41.3657C119.967 41.8763 118.53 42.1316 116.866 42.1316ZM133.93 41.8195V25.4235H127.576V21.821H144.709V25.4235H138.355V41.8195H133.93ZM148.537 41.8195V21.821H152.962V41.8195H148.537ZM158.432 41.8195V21.821H161.722L172.587 35.6356H171.821V21.821H175.934V41.8195H172.644L161.807 28.0049H162.545V41.8195H158.432ZM191.302 42.1316C189.014 42.1316 187.085 41.7155 185.515 40.8834C183.965 40.0324 182.792 38.841 181.998 37.3092C181.204 35.7585 180.806 33.9525 180.806 31.8912C180.806 29.7731 181.232 27.9387 182.083 26.388C182.953 24.8373 184.201 23.6364 185.827 22.7854C187.454 21.9344 189.402 21.5089 191.671 21.5089C193.127 21.5089 194.404 21.698 195.5 22.0763C196.616 22.4356 197.59 22.9556 198.422 23.6364L197.004 27.0688C196.399 26.6338 195.831 26.2934 195.302 26.0476C194.772 25.7828 194.224 25.6032 193.657 25.5086C193.089 25.3952 192.437 25.3384 191.699 25.3384C189.619 25.3384 188.049 25.9058 186.99 27.0404C185.95 28.1562 185.43 29.7826 185.43 31.9195C185.43 34.0376 185.922 35.645 186.905 36.7419C187.889 37.8387 189.43 38.3871 191.529 38.3871C192.229 38.3871 192.947 38.321 193.685 38.1886C194.423 38.0562 195.151 37.8576 195.869 37.5929L195.075 39.2949V33.9052H190.678V30.7565H198.734V40.5714C197.732 41.0631 196.569 41.4508 195.245 41.7344C193.94 41.9992 192.626 42.1316 191.302 42.1316ZM203.957 41.8195V21.821H217.857V25.2533H208.184V29.9338H217.176V33.3946H208.184V38.3871H217.857V41.8195H203.957ZM222.357 41.8195V21.821H231.434C233.684 21.821 235.424 22.3599 236.654 23.4379C237.883 24.4969 238.497 25.9814 238.497 27.8914C238.497 29.1396 238.214 30.2175 237.646 31.1253C237.098 32.0141 236.304 32.7043 235.264 33.196C234.242 33.6688 233.013 33.9052 231.576 33.9052L231.916 33.2811H233.079C233.893 33.2811 234.611 33.4986 235.235 33.9336C235.878 34.3685 236.408 35.002 236.824 35.8341L239.802 41.8195H234.923L231.831 35.3803C231.604 34.8318 231.245 34.4725 230.753 34.3023C230.28 34.1132 229.732 34.0187 229.108 34.0187H226.782V41.8195H222.357ZM226.782 30.8416H230.668C231.822 30.8416 232.701 30.6052 233.306 30.1324C233.911 29.6596 234.214 28.9599 234.214 28.0333C234.214 27.1066 233.911 26.4164 233.306 25.9625C232.701 25.4897 231.822 25.2533 230.668 25.2533H226.782V30.8416Z" fill="white"/>
<path d="M13.7929 7.97792L1 1V26.5857H43.7397L30.9469 19.317H13.7929V7.97792Z" fill="white"/>
<path d="M47.5195 30.0747L3.90747 29.7839L16.9911 37.0526H34.4359V48.3917L47.5195 55.3696V30.0747Z" fill="white"/>
<path d="M13.7929 39.3786L1 31.8191V48.3917L13.7929 55.0789V39.3786Z" fill="white"/>
<path d="M34.4359 17.2818V1.29075L47.5195 7.68717V25.132L34.4359 17.2818Z" fill="white"/>
<path d="M13.7929 7.97792L1 1V26.5857H43.7397L30.9469 19.317H13.7929V7.97792Z" stroke="white" stroke-width="0.581493"/>
<path d="M47.5195 30.0747L3.90747 29.7839L16.9911 37.0526H34.4359V48.3917L47.5195 55.3696V30.0747Z" stroke="white" stroke-width="0.581493"/>
<path d="M13.7929 39.3786L1 31.8191V48.3917L13.7929 55.0789V39.3786Z" stroke="white" stroke-width="0.581493"/>
<path d="M34.4359 17.2818V1.29075L47.5195 7.68717V25.132L34.4359 17.2818Z" stroke="white" stroke-width="0.581493"/>
</svg>
