<svg width="225" height="30" viewBox="0 0 225 30" fill="none" xmlns="http://www.w3.org/2000/svg">
<path fill-rule="evenodd" clip-rule="evenodd" d="M221.333 13.0089C221.333 13.9684 221.941 14.7148 222.725 14.7148C223.421 14.7148 224.031 13.9684 224.118 13.0089C224.118 12.0493 223.508 11.3029 222.725 11.3029C221.941 11.3029 221.333 12.0493 221.333 13.0089ZM221.593 13.1155C221.593 12.3691 222.116 11.7294 222.726 11.7294C223.334 11.7294 223.77 12.2625 223.857 13.1155C223.857 13.8618 223.334 14.5015 222.726 14.5015C222.116 14.5015 221.593 13.8618 221.593 13.1155ZM223.421 13.9684H223.073L222.813 13.3287H222.377V13.9684H222.116V12.1559H222.813C223.16 12.1559 223.334 12.3692 223.334 12.7956C223.334 13.0089 223.247 13.3287 222.986 13.3287L223.421 13.9684ZM223.073 12.689C223.073 12.9022 222.9 13.0089 222.813 13.0089V12.9022H222.377V12.3692H222.813C222.986 12.3692 223.073 12.4758 223.073 12.689Z" fill="#B3A5B3"/>
<path d="M77.9607 10.9089H81.5295V22.7438H87.7097V26.5822H77.9607V10.9089Z" fill="#B3A5B3"/>
<path fill-rule="evenodd" clip-rule="evenodd" d="M98.2423 10.5889C94.3252 10.5889 91.3658 14.214 91.3658 18.7987C91.3658 23.2768 94.2382 26.7953 98.2423 26.7953C102.159 26.7953 105.119 23.1702 105.119 18.6921C105.119 14.214 102.159 10.5889 98.2423 10.5889ZM98.155 14.5339C100.157 14.5339 101.463 16.4531 101.463 18.7987C101.463 21.0377 100.157 22.957 98.155 22.957C96.2401 22.957 94.9344 20.9311 94.9344 18.6921C94.9344 16.4531 96.2401 14.5339 98.155 14.5339Z" fill="#B3A5B3"/>
<path d="M109.384 19.6518V10.9089H112.953V19.5452C112.953 21.7842 113.91 22.8505 115.303 22.8505C116.696 22.8505 117.653 21.7842 117.653 19.6518V10.8023H121.222V19.4386C121.222 24.4498 118.872 26.6888 115.216 26.6888C111.647 26.7954 109.384 24.5564 109.384 19.6518Z" fill="#B3A5B3"/>
<path fill-rule="evenodd" clip-rule="evenodd" d="M131.668 10.9089H126.706V26.4755H131.581C136.194 26.4755 138.892 23.0637 138.892 18.5856C138.892 14.1075 136.194 10.9089 131.668 10.9089ZM135.149 18.7987C135.149 21.3576 133.757 22.7438 131.668 22.7438V22.8504H130.189V14.8537H131.668C133.757 14.8537 135.149 16.3465 135.149 18.7987Z" fill="#B3A5B3"/>
<path d="M143.94 10.9089H154.124V14.7472H147.51V17.3062H153.516V20.9312H147.51V26.5822H143.94V10.9089Z" fill="#B3A5B3"/>
<path d="M159.086 10.9089H162.654V22.7438H168.835V26.5822H159.086V10.9089Z" fill="#B3A5B3"/>
<path fill-rule="evenodd" clip-rule="evenodd" d="M181.456 10.8023H178.062L172.578 26.5822H176.234L177.104 23.8101H182.066L183.023 26.5822H186.854L181.456 10.8023ZM179.716 15.9202L181.109 20.3982H178.237L179.716 15.9202Z" fill="#B3A5B3"/>
<path fill-rule="evenodd" clip-rule="evenodd" d="M197.473 10.9089H191.467H191.38V26.4755H194.949V21.7842H196.516L199.127 26.4755H203.219L200.172 21.0379C201.739 20.1849 202.783 18.5856 202.783 16.2399C202.783 14.7472 202.435 13.4678 201.652 12.6148C200.781 11.5486 199.388 10.9089 197.473 10.9089ZM199.214 16.5596C199.214 17.6258 198.518 18.3721 197.299 18.3721V18.4789H194.949V14.7471H197.299C198.518 14.7471 199.214 15.2802 199.214 16.5596Z" fill="#B3A5B3"/>
<path d="M207.831 10.9089H218.103V14.6406H211.4V16.9863H217.493V20.3981H211.4V22.8504H218.19V26.5822H207.831V10.9089Z" fill="#B3A5B3"/>
<path d="M70.2139 20.6113C69.6916 21.9974 68.6471 22.957 67.2543 22.957C65.3394 22.957 64.0337 21.0379 64.0337 18.6921C64.0337 16.4531 65.3394 14.5339 67.2543 14.5339C68.7341 14.5339 69.7786 15.6002 70.3009 17.0928H74.0438C73.4345 13.361 70.7361 10.5889 67.3413 10.5889C63.4244 10.5889 60.4648 14.214 60.4648 18.6921C60.4648 23.1702 63.3374 26.7953 67.3413 26.7953C70.7361 26.7953 73.3475 24.1298 74.0438 20.5046H70.2139V20.6113Z" fill="#B3A5B3"/>
<path d="M37.3721 28.3623C37.676 26.9479 37.5545 25.6824 37.0074 24.7147C36.5213 23.8214 35.6705 23.3002 34.6373 23.3002L15.0682 23.0025C14.9467 23.0025 14.8251 22.9279 14.7643 22.7791C14.7036 22.6303 14.7036 22.4813 14.7036 22.3325C14.7643 22.1092 14.9467 21.8858 15.129 21.8858L34.8804 21.588C37.2506 21.4392 39.7423 19.1315 40.6539 16.3027L41.8086 12.7295C41.8694 12.5807 41.8694 12.4318 41.8694 12.2829C40.5931 5.21091 35.4881 0 29.35 0C23.6981 0 18.897 4.46649 17.1953 10.6452C16.1014 9.60297 14.6428 9.08187 13.1234 9.3052C10.3887 9.60297 8.26158 12.2829 7.95772 15.6328C7.89694 16.5261 7.95771 17.3449 8.07926 18.0893C3.64279 18.2382 0.11792 22.7047 0.11792 28.1389C0.11792 28.6601 0.178693 29.1067 0.178693 29.6278C0.178693 29.851 0.361014 30 0.543335 30H36.6428C36.8252 30 37.0683 29.851 37.1291 29.5534L37.3721 28.3623Z" fill="#B3A5B3"/>
<path d="M43.5711 12.9529C43.3888 12.9529 43.2064 12.9529 43.0241 12.9529C42.9025 12.9529 42.781 13.1017 42.7203 13.2506L41.9301 16.5261C41.6264 17.9404 41.7479 19.2059 42.2948 20.1736C42.781 21.0669 43.6318 21.588 44.665 21.588L48.8584 21.8858C48.9799 21.8858 49.1015 21.9602 49.1623 22.1092C49.223 22.258 49.223 22.4069 49.223 22.5558C49.1623 22.7791 48.9799 23.0025 48.7976 23.0025L44.4827 23.3002C42.1125 23.4491 39.6208 25.7568 38.7091 28.5855L38.4054 29.5534C38.3445 29.7022 38.4661 29.9255 38.6484 29.9255H53.5379C53.7202 29.9255 53.9026 29.7766 53.9026 29.5534C54.1457 28.4367 54.328 27.2456 54.328 25.9801C54.2672 18.8337 49.4662 12.9529 43.5711 12.9529Z" fill="#B3A5B3"/>
</svg>
