<svg width="225" height="46" viewBox="0 0 225 46" fill="none" xmlns="http://www.w3.org/2000/svg">
<path fill-rule="evenodd" clip-rule="evenodd" d="M133.411 19.8297C138.294 21.8009 140.818 24.1536 140.928 26.805C140.502 31.246 136.819 33.7966 130.148 33.7973C128.036 33.715 125.947 33.3612 123.935 32.7466C124.388 31.5151 124.725 30.2348 124.936 28.9383H124.995C125.78 31.3242 127.849 32.5805 131.156 32.6733C134.499 32.5766 136.313 31.2894 136.554 28.8321C136.554 27.0838 134.632 25.4889 130.838 24.0976C126.299 22.395 123.999 20.0422 123.999 17.1124C124.207 12.764 127.246 10.5244 133.27 10.2672C135.665 10.3487 137.757 10.8142 139.492 11.6484C139.299 12.049 139.069 12.5341 138.797 13.1122C138.574 13.6581 138.402 14.0921 138.279 14.4315C137.103 12.5016 135.366 11.5253 133.107 11.5253C129.789 11.6218 128.035 12.9484 128.035 15.3647C128.035 16.8628 129.792 18.3251 133.411 19.8297ZM57.8225 10.9496V31.368C57.8225 31.5593 58.0066 31.7218 58.2415 31.7386C59.5746 31.8278 61.0556 31.8278 62.6117 31.7386C63.8817 31.6592 65.4311 31.5127 67.3445 31.2893C67.2747 31.6013 67.2403 31.9384 67.2403 32.3024C67.2403 32.6121 67.2796 32.9888 67.3542 33.3965H52.2966V10.9536C52.5835 10.9739 52.9535 11.0105 53.4111 11.0609C54.0794 11.1533 54.765 11.1556 55.1738 11.0675L56.5283 11.0627C57.0437 11.0059 57.4701 10.9663 57.8225 10.9496ZM75.8718 12.0661C75.0686 12.1566 74.5334 12.1584 74.1477 12.0709H72.7932C72.3144 12.0182 71.9489 11.9845 71.6739 11.963V33.3964H76.916V11.9582C76.6143 11.9769 76.2709 12.012 75.8718 12.0661ZM81.1401 12.8482C81.1401 12.5509 81.1147 12.2468 81.0641 11.9427H100.774C100.7 12.2468 100.697 12.5544 100.762 12.8572C100.7 13.2369 100.7 13.5764 100.76 13.8726C100.167 13.8546 99.5974 13.815 99.0608 13.7526C96.94 13.5835 95.2769 13.4972 94.1147 13.4972C93.8607 13.4972 93.6541 13.6632 93.6541 13.8676V33.3965H88.5689V13.8676C88.5689 13.6634 88.3631 13.4972 88.1075 13.4972C86.5103 13.4972 84.4275 13.6266 81.947 13.8798H81.0715C81.1161 13.5846 81.1401 13.2393 81.1401 12.8482ZM104.946 11.9425V33.3965H119.307C119.237 33.01 119.2 32.6569 119.2 32.3649C119.2 32.031 119.232 31.7182 119.29 31.4319C118.312 31.5519 117.223 31.6478 116.055 31.7123C114.697 31.8006 112.826 31.8433 110.49 31.8433C110.237 31.8433 110.031 31.6764 110.031 31.4706V23.179C110.031 22.9751 110.237 22.8083 110.49 22.8083H114.333C115.529 22.8647 116.505 22.9214 117.469 22.9774H117.469L117.674 22.9894L118.435 23.032L118.431 23.0182L118.431 23.0175C118.409 22.9392 118.386 22.8517 118.36 22.7593L118.346 21.2671C118.346 21.2251 118.353 21.1844 118.371 21.1484C118.381 21.1196 118.392 21.0896 118.403 21.0621C117.049 21.1975 115.812 21.2545 114.334 21.2545H110.491C110.237 21.2545 110.031 21.0877 110.031 20.8833V13.8676C110.031 13.6632 110.237 13.4972 110.491 13.4972C113.325 13.4972 116.302 13.646 119.344 13.9408C119.248 13.6026 119.2 13.2776 119.2 12.9753C119.2 12.6157 119.248 12.2689 119.345 11.9425H104.946ZM149.711 23.7171C149.631 23.7214 149.515 23.7379 149.419 23.8146C149.335 23.8825 149.286 23.9746 149.286 24.0693V33.3964H144.008V11.939H153.515C158.959 11.939 161.656 13.6181 161.757 17.0683C161.796 18.946 161.156 20.4405 159.857 21.5082C158.069 22.9788 154.938 23.7242 150.553 23.7242C150.284 23.7242 150.015 23.7209 149.711 23.7171ZM150.307 22.6722C150.085 22.6722 149.866 22.6595 149.663 22.6356C149.446 22.6117 149.286 22.4617 149.286 22.286V13.2416C149.286 13.046 149.484 12.886 149.727 12.886H152.25C154.841 13.1672 156.253 14.7792 156.477 17.6772C156.253 20.2477 154.923 21.8196 152.528 22.3726C151.704 22.5711 150.955 22.6722 150.307 22.6722ZM182.867 11.9391V33.3964H197.253C197.184 33.0064 197.148 32.6472 197.148 32.3482C197.148 32.0082 197.177 31.6889 197.24 31.3986C196.251 31.521 195.155 31.6188 193.984 31.6836C192.614 31.7706 190.799 31.8121 188.43 31.8121C188.187 31.8121 187.99 31.652 187.99 31.4587V23.1767C187.99 22.9822 188.187 22.8222 188.43 22.8222H192.691C194.292 22.9002 195.749 22.974 197.083 23.0477L197.07 23.0005C197.05 22.9247 197.027 22.8418 196.999 22.7525L196.986 21.2671C196.986 21.2264 196.993 21.1879 197.011 21.1538C197.026 21.1161 197.041 21.0788 197.055 21.0452C195.723 21.1724 194.257 21.2384 192.691 21.2384H188.43C188.187 21.2384 187.99 21.0788 187.99 20.8846V13.8779C187.99 13.6824 188.187 13.5234 188.43 13.5234C191.271 13.5234 194.252 13.6747 197.296 13.9705C197.195 13.6243 197.148 13.2944 197.148 12.9874C197.148 12.6186 197.195 12.2689 197.301 11.9391H182.867ZM200.948 33.3966H209.707C218.757 32.9833 223.606 29.1525 224.118 22.0108C223.705 15.6561 219.81 12.3547 212.214 11.9373L200.948 11.939V33.3966ZM218.209 22.0306C218.209 16.1329 214.925 13.1397 208.459 13.1397H206.505C206.264 13.1397 206.065 13.3004 206.065 13.496V31.8409C206.065 32.0346 206.264 32.1955 206.505 32.1955H208.23C211.538 32.1955 214.06 31.3238 215.73 29.6093C217.373 27.9169 218.209 25.3677 218.209 22.0306ZM164.702 33.3964V11.9391H179.128C179.031 12.2689 178.978 12.6186 178.978 12.9874C178.978 13.2944 179.027 13.6243 179.126 13.9705C176.083 13.6747 173.1 13.5234 170.259 13.5234C170.019 13.5234 169.82 13.6824 169.82 13.8779V20.8846C169.82 21.0788 170.019 21.2384 170.259 21.2384H174.523C176.093 21.2384 177.557 21.1724 178.883 21.0452C178.871 21.0788 178.856 21.1161 178.843 21.1538C178.827 21.1879 178.819 21.2264 178.819 21.2671L178.833 22.7525C178.865 22.8606 178.893 22.9595 178.916 23.0477C177.58 22.974 176.126 22.9002 174.523 22.8222H170.259C170.019 22.8222 169.82 22.9822 169.82 23.1767V31.4587C169.82 31.652 170.019 31.8121 170.259 31.8121C172.63 31.8121 174.448 31.7706 175.816 31.6836C176.986 31.6188 178.078 31.521 179.072 31.3986C179.009 31.6889 178.978 32.0082 178.978 32.3482C178.978 32.6472 179.018 33.0064 179.085 33.3964H164.702Z" fill="#B3A5B3"/>
<path d="M43.6563 22.3361L30.5463 11.7576L24.9627 17.4777L30.9829 22.336C31.5382 22.7848 31.5382 23.5176 30.9829 23.9661L29.2416 25.3708C29.2416 25.3708 30.4158 26.7893 30.4698 26.8746C30.7406 27.3131 30.8062 28.3428 30.0372 28.8126L16.3446 37.2966C16.3414 40.1436 16.3366 45.9973 16.3422 46C16.3446 46.0006 43.6566 23.9658 43.6566 23.9658C44.2116 23.5172 44.2116 22.7849 43.6563 22.3361Z" fill="#B3A5B3"/>
<path d="M13.2066 23.6674C12.6532 23.2212 12.6532 22.4889 13.2066 22.04L14.9502 20.6328L13.7582 19.2505C13.1898 18.6009 13.3688 17.6773 14.1525 17.1938L27.8477 8.70919L27.8571 0.0112947L27.8493 0.00774495L27.8423 0L0.534625 22.04C-0.0211814 22.4889 -0.0211814 23.2212 0.535824 23.6695L13.6431 34.2483L19.2282 28.5282L13.2066 23.6674Z" fill="#B3A5B3"/>
<path fill-rule="evenodd" clip-rule="evenodd" d="M33.9999 5.37841C34.3001 5.18914 34.5177 5.11218 34.7492 5.11218C35.0277 5.11218 35.295 5.24852 35.4189 5.45037C35.6408 5.81974 35.318 6.15167 35.1593 6.31489L35.1552 6.3191L23.1553 18.6116C23.0472 18.7215 23.0378 18.9689 23.1372 19.0826C23.1372 19.0826 29.6134 26.6644 29.8363 26.9226C30.1521 27.2901 30.1498 28.2641 29.4826 28.6719L10.1883 40.626C9.91762 40.7935 9.70248 40.8931 9.40178 40.8951C9.14208 40.8811 8.88317 40.7436 8.7702 40.5599C8.54549 40.1916 8.87458 39.8483 9.03292 39.6836L21.0289 27.3973C21.1384 27.2788 21.1509 27.0433 21.0524 26.9226L14.3559 19.1507C13.8542 18.575 14.0092 17.7618 14.7023 17.3339L33.9999 5.37841ZM35.3751 5.46902C35.2595 5.28041 35.0084 5.15342 34.7503 5.15342C34.5302 5.15342 34.3218 5.22812 34.0318 5.41142L14.734 17.3671C14.0633 17.781 13.9125 18.5714 14.3979 19.1286L21.0947 26.9006C21.2054 27.0359 21.1932 27.2895 21.0702 27.4224L9.0734 39.7094C8.92145 39.8672 8.60476 40.1964 8.8161 40.5429C8.92145 40.7139 9.16418 40.8426 9.40629 40.8557C9.6874 40.8535 9.88832 40.7625 10.1592 40.5948L29.4533 28.6407C30.0817 28.2564 30.1115 27.3128 29.7961 26.9464C29.5819 26.6985 23.5224 19.6043 23.1178 19.1307L23.0972 19.1064C22.9852 18.9783 22.9954 18.7114 23.1171 18.5876L35.1172 6.29515V6.29511C35.2827 6.12487 35.5834 5.81574 35.3751 5.46902Z" fill="#B3A5B3"/>
<path d="M29.1433 27.0658C29.299 27.2558 29.4391 27.9755 29.0478 28.2133L9.75095 40.1689C9.5884 40.2693 9.48444 40.3179 9.43806 40.3148C9.37147 40.3179 9.41966 40.2224 9.59679 40.038L21.5918 27.7544C21.8953 27.4375 21.9157 26.918 21.6372 26.5948L14.9413 18.8178C14.9413 18.8181 28.9884 26.8749 29.1433 27.0658Z" fill="#B3A5B3"/>
<path d="M29.1449 27.0656L22.5509 19.4106C22.2709 19.0862 22.2933 18.5655 22.593 18.2567L34.5901 5.96548C34.7685 5.78234 34.8145 5.69086 34.7504 5.69086C34.7028 5.69086 34.5971 5.73572 34.4375 5.83801L15.1401 17.7921C14.7528 18.0326 14.6612 18.4954 14.9429 18.8179L29.1449 27.0656Z" fill="#B3A5B3"/>
</svg>
