<svg width="608" height="205" viewBox="0 0 608 205" fill="none" xmlns="http://www.w3.org/2000/svg">
<rect width="186" height="205" rx="20" fill="white"/>
<path d="M144.644 57.7501L135.202 163.527L92.7585 175.294L50.4322 163.544L41 57.7501H144.644Z" fill="#E44D26"/>
<path d="M92.822 166.3L127.118 156.791L135.187 66.4003H92.822V166.3Z" fill="#F16529"/>
<path d="M74.4666 92.3509H92.8219V79.3756H60.2864L60.597 82.8566L63.7861 118.613H92.8219V105.638H75.6524L74.4666 92.3509Z" fill="#EBEBEB"/>
<path d="M77.3908 125.1H64.3658L66.1837 145.473L92.7622 152.852L92.822 152.835V139.335L92.7651 139.351L78.3146 135.449L77.3908 125.1Z" fill="#EBEBEB"/>
<path d="M50.6431 29H57.2369V35.5146H63.2686V29H69.8627V48.7279H63.2689V42.1219H57.2371V48.7279H50.6434V29H50.6431Z" fill="black"/>
<path d="M78.5338 35.5421H72.7289V29H90.9356V35.5421H85.1281V48.7279H78.5341V35.5421H78.5338Z" fill="black"/>
<path d="M93.8251 29H100.701L104.93 35.9318L109.155 29H116.033V48.7279H109.467V38.9497L104.93 45.9641H104.817L100.277 38.9497V48.7279H93.8251V29Z" fill="black"/>
<path d="M119.315 29H125.911V42.207H135.183V48.7279H119.315V29Z" fill="black"/>
<path d="M92.7771 118.613H108.755L107.248 135.44L92.7771 139.346V152.845L119.377 145.473L119.572 143.281L122.621 109.122L122.938 105.638H92.7771V118.613Z" fill="white"/>
<path d="M92.7771 92.3191V92.3509H124.118L124.379 89.4344L124.97 82.8566L125.28 79.3756H92.7771V92.3191Z" fill="white"/>
<rect x="211" width="186" height="205" rx="20" fill="white"/>
<path fill-rule="evenodd" clip-rule="evenodd" d="M303.822 49C314.071 49 324.091 52.0393 332.613 57.7336C341.135 63.4278 347.777 71.5213 351.699 80.9905C355.621 90.4598 356.648 100.879 354.648 110.932C352.649 120.984 347.713 130.218 340.466 137.466C333.218 144.713 323.984 149.649 313.932 151.648C303.879 153.648 293.46 152.621 283.991 148.699C274.521 144.777 266.428 138.135 260.734 129.613C255.039 121.091 252 111.071 252 100.822C252 87.0779 257.46 73.8968 267.178 64.1783C276.897 54.4598 290.078 49 303.822 49V49Z" fill="#CC6699"/>
<path d="M336.329 71.1798C333.982 61.9777 318.721 58.9646 304.277 64.0802C295.232 67.1198 286.875 71.9134 279.684 78.1869C271.729 85.627 270.46 92.1048 270.982 94.8106C272.832 104.361 285.91 110.601 291.288 115.232V115.258C289.704 116.039 278.096 121.921 275.372 127.917C272.507 134.255 275.827 138.8 278.029 139.411C281.336 140.207 284.809 139.948 287.961 138.67C291.113 137.392 293.786 135.159 295.604 132.285C297.108 129.957 298.048 127.31 298.351 124.555C298.654 121.8 298.312 119.013 297.352 116.413C299.942 115.755 302.635 115.6 305.284 115.958C314.375 117.02 316.159 122.695 315.819 125.071C315.659 125.917 315.318 126.718 314.821 127.421C314.323 128.124 313.68 128.711 312.935 129.143C312.299 129.539 312.102 129.672 312.158 129.968C312.236 130.394 312.528 130.379 313.072 130.286C314.438 129.856 315.642 129.022 316.525 127.894C317.408 126.766 317.928 125.397 318.017 123.968C318.236 118.416 312.902 112.175 303.455 112.334C300.712 112.255 297.974 112.631 295.353 113.444C295.223 113.296 295.09 113.148 294.953 113C289.112 106.77 278.318 102.362 278.773 93.9852C278.94 90.9388 279.999 82.9212 299.502 73.1935C315.493 65.224 328.293 67.419 330.507 72.2792C333.668 79.2233 323.666 92.1233 307.061 93.9852C305.225 94.3578 303.33 94.3123 301.514 93.8522C299.699 93.3921 298.011 92.5292 296.574 91.3274C295.701 90.365 295.571 90.3243 295.245 90.502C294.716 90.7944 295.053 91.6458 295.245 92.1492C295.881 93.2951 296.74 94.3025 297.77 95.1123C298.8 95.9221 299.982 96.518 301.246 96.865C307.774 98.2836 314.584 97.6101 320.708 94.9402C330.78 91.0572 338.635 80.2301 336.329 71.1798V71.1798ZM293.524 118.082C294.259 120.617 294.222 123.313 293.417 125.826C293.33 126.088 293.235 126.347 293.132 126.603C293.028 126.86 292.916 127.107 292.795 127.344C292.172 128.618 291.365 129.794 290.4 130.834C287.391 134.118 283.182 135.361 281.379 134.314C279.432 133.185 280.406 128.554 283.896 124.864C286.579 122.211 289.671 120.009 293.054 118.341L293.524 118.082Z" fill="white"/>
<rect x="422" width="186" height="205" rx="20" fill="white"/>
<path d="M463 47H566.644V150.644H463V47Z" fill="#F7DF1E"/>
<path d="M490.252 133.612L498.183 128.812C499.713 131.525 501.105 133.821 504.444 133.821C507.645 133.821 509.662 132.569 509.662 127.699V94.5826H519.402V127.837C519.402 137.925 513.489 142.517 504.862 142.517C497.07 142.517 492.547 138.481 490.252 133.612" fill="black"/>
<path d="M524.693 132.569L532.623 127.977C534.711 131.386 537.424 133.891 542.225 133.891C546.26 133.891 548.834 131.873 548.834 129.09C548.834 125.751 546.19 124.568 541.737 122.62L539.303 121.576C532.276 118.585 527.614 114.828 527.614 106.897C527.614 99.5917 533.18 94.0257 541.877 94.0257C548.069 94.0257 552.521 96.1826 555.721 101.818L548.138 106.688C546.468 103.696 544.66 102.514 541.877 102.514C539.025 102.514 537.216 104.323 537.216 106.688C537.216 109.61 539.025 110.793 543.198 112.602L545.633 113.645C553.912 117.194 558.574 120.811 558.574 128.951C558.574 137.718 551.686 142.518 542.433 142.518C533.389 142.518 527.545 138.204 524.693 132.569" fill="black"/>
</svg>
