<svg width="225" height="47" viewBox="0 0 225 47" fill="none" xmlns="http://www.w3.org/2000/svg">
<path d="M83.9471 12.4444L79.0235 31.5022L74.1 12.4444H69.1412L70.2882 16.5333L65.9647 32.1422L61.2353 12.4444H56.4706L63.1765 37.3333H68.4L72.4235 24.0178L76.1824 37.3333H81.3882L88.4471 12.4444H83.9471ZM134.047 19.6622C132.97 19.4112 131.87 19.2742 130.765 19.2533C124.765 19.2533 121.482 23.2889 121.482 29.2089C121.482 35.0933 124.765 37.7778 128.629 37.7778C130.684 37.7103 132.663 36.9813 134.276 35.6978V37.3333H138.388V12.4444H134.047V19.6622ZM134.047 32.2489C132.635 33.5467 131.312 34.2578 129.918 34.2578C127.518 34.2578 125.982 32.6578 125.982 28.9067C125.982 24.8533 127.888 22.7378 131.206 22.7378C132.176 22.7378 133.147 22.9333 134.029 23.2889V32.2489H134.047ZM113.294 22.5778H113.135V19.6622H109.076V37.3333H113.435V26.8089C114.794 24.2133 116.453 23.36 119.224 23.36H119.665V19.5556C119.272 19.5119 118.877 19.4881 118.482 19.4844C116.118 19.4844 114.494 20.4089 113.294 22.5956V22.5778ZM96.7412 19.2178C90.7412 19.2178 87.9176 23.1289 87.9176 28.5156C87.9176 33.8844 90.7412 37.76 96.7412 37.76C102.741 37.76 105.6 33.8844 105.6 28.5156C105.6 23.1289 102.706 19.2178 96.7235 19.2178H96.7412ZM96.7412 34.2222C93.9176 34.2222 92.4 32.3733 92.4 28.5156C92.4 24.64 93.9176 22.7911 96.7588 22.7911C99.5824 22.7911 101.065 24.64 101.065 28.5156C101.065 32.3733 99.5647 34.2222 96.7235 34.2222H96.7412ZM167.876 22.56H167.735V19.6622H163.659V37.3333H168V26.8089C169.359 24.2133 171.018 23.36 173.788 23.36H174.229V19.5556C173.837 19.5119 173.442 19.4881 173.047 19.4844C170.7 19.4844 169.076 20.4089 167.859 22.5956H167.876V22.56ZM151.853 12.4444H143.771V37.3333H148.429V28.6756H151.835C157.112 28.6756 160.941 25.8133 160.941 20.4622C160.941 15.1289 157.112 12.4444 151.835 12.4444H151.853ZM151.888 25.0311H148.429V16.1244H151.871C154.694 16.1244 156.071 17.6889 156.071 20.4622C156.071 23.2533 154.782 25.0311 151.871 25.0311H151.888ZM215.453 24.6222C215.453 23.2889 216.9 22.7733 218.453 22.7733C220.094 22.7911 221.735 23.0578 223.306 23.5378V19.9111C221.613 19.4294 219.859 19.2017 218.1 19.2356C213.9 19.2356 210.953 21.2444 210.953 24.5156C210.953 30.8622 219.635 29.2267 219.635 32.32C219.635 33.8311 218.276 34.24 216.282 34.24C214.871 34.24 212.629 33.7067 211.006 33.12V36.7289C212.636 37.3849 214.369 37.7402 216.124 37.7778C220.218 37.7778 224.118 36.5511 224.118 32.1422C224.171 26.0089 215.471 27.5911 215.471 24.6222H215.453ZM184.571 19.2356C178.959 19.2356 176.047 23.6267 176.047 28.4089C176.047 34.9867 179.471 37.7778 185.047 37.7778C187.234 37.7825 189.407 37.4405 191.488 36.7644V33.12C189.671 33.7956 188.012 34.2044 186.247 34.2044C183 34.2044 180.829 33.3156 180.724 29.4578H191.947C192.053 28.5867 192.106 27.7156 192.088 26.8622C192.088 23.1289 190.129 19.2356 184.553 19.2356H184.571ZM180.759 26.56C181.024 24.1067 182.347 22.5422 184.518 22.5422C186.847 22.5422 187.553 24.4089 187.553 26.56H180.759ZM199.641 24.6222C199.641 23.2889 201.071 22.7733 202.624 22.7733C204.265 22.7911 205.906 23.0578 207.476 23.5378V19.9111C205.789 19.4311 204.041 19.2035 202.288 19.2356C198.088 19.2356 195.124 21.2444 195.124 24.5156C195.124 30.8622 203.824 29.2267 203.824 32.32C203.824 33.8311 202.447 34.24 200.471 34.24C199.059 34.24 196.818 33.7067 195.176 33.12V36.7289C196.806 37.3853 198.54 37.7406 200.294 37.7778C204.388 37.7778 208.306 36.5511 208.306 32.1422C208.341 26.0089 199.641 27.5911 199.641 24.6222ZM3.03529 23.1111C3.03529 31.0578 7.62353 37.9022 14.2588 41.1556L4.76471 14.9511C3.62466 17.5182 3.03535 20.2988 3.03529 23.1111ZM22.9412 43.1644C25.2529 43.1644 27.4765 42.7556 29.5588 42.0267L29.4176 41.76L23.2941 24.8711L17.3294 42.3467C19.0941 42.88 20.9824 43.1644 22.9412 43.1644ZM25.6765 13.7067L32.8765 35.2711L34.8706 28.5867C35.7176 25.8133 36.3706 23.8222 36.3706 22.0978C36.3706 19.6089 35.4882 17.9022 34.7471 16.5867C33.7235 14.9156 32.7882 13.5111 32.7882 11.8756C32.7882 10.0267 34.1647 8.32 36.1412 8.32H36.3882C32.7204 4.92784 27.9203 3.04942 22.9412 3.05778C19.6444 3.05716 16.3991 3.88218 13.4974 5.45862C10.5956 7.03506 8.1284 9.31347 6.31765 12.0889L7.58824 12.1244C9.67059 12.1244 12.8824 11.8578 12.8824 11.8578C13.9765 11.8044 14.1 13.3867 13.0235 13.5111C13.0235 13.5111 11.9471 13.6533 10.7294 13.7067L18 35.4311L22.3588 22.2756L19.2529 13.7067C18.5572 13.668 17.8628 13.6087 17.1706 13.5289C16.0941 13.4578 16.2176 11.8044 17.2941 11.8578C17.2941 11.8578 20.5765 12.1244 22.5353 12.1244C24.6176 12.1244 27.8294 11.8578 27.8294 11.8578C28.9059 11.8044 29.0471 13.3867 27.9706 13.5111C27.9706 13.5111 26.8941 13.6356 25.6765 13.7067ZM32.9471 40.4444C35.9584 38.6805 38.4576 36.1513 40.1948 33.1097C41.9321 30.068 42.8466 26.6203 42.8471 23.1111C42.8471 19.6267 41.9647 16.3556 40.4118 13.4933C40.7271 16.6423 40.2539 19.8206 39.0353 22.7378L32.9471 40.4444ZM22.9412 46.2222C16.8568 46.2222 11.0216 43.7873 6.71932 39.4531C2.41701 35.119 0 29.2406 0 23.1111C0 16.9817 2.41701 11.1033 6.71932 6.76909C11.0216 2.43491 16.8568 0 22.9412 0C29.0256 0 34.8607 2.43491 39.163 6.76909C43.4653 11.1033 45.8824 16.9817 45.8824 23.1111C45.8824 29.2406 43.4653 35.119 39.163 39.4531C34.8607 43.7873 29.0256 46.2222 22.9412 46.2222Z" fill="#B3A5B3"/>
</svg>
