<svg width="101" height="127" viewBox="0 0 101 127" fill="none" xmlns="http://www.w3.org/2000/svg">
<path d="M0.333333 11C0.333333 16.891 5.10896 21.6667 11 21.6667C16.891 21.6667 21.6667 16.891 21.6667 11C21.6667 5.10896 16.891 0.333333 11 0.333333C5.10896 0.333333 0.333333 5.10896 0.333333 11ZM90 126.5L100.61 105.988L77.541 107.055L90 126.5ZM10.3074 12.8762C40.9134 24.1748 59.0884 34.3945 70.1489 48.4761C81.1818 62.5228 85.3737 80.7192 87.1724 108.653L91.1642 108.396C89.3554 80.3066 85.1169 61.0571 73.2945 46.0054C61.4997 30.9887 42.3942 20.4576 11.6926 9.12376L10.3074 12.8762Z" fill="url(#paint0_linear_62_195)"/>
<defs>
<linearGradient id="paint0_linear_62_195" x1="8.27412" y1="131.45" x2="159.017" y2="22.7066" gradientUnits="userSpaceOnUse">
<stop stop-color="#4312A5"/>
<stop offset="0.25638" stop-color="#6233DF"/>
<stop offset="1" stop-color="#849BFF"/>
</linearGradient>
</defs>
</svg>
