<svg width="71" height="180" viewBox="0 0 71 180" fill="none" xmlns="http://www.w3.org/2000/svg">
<path d="M0.499945 12C0.499945 18.6274 5.87253 24 12.4999 24C19.1274 24 24.4999 18.6274 24.4999 12C24.4999 5.37258 19.1274 0 12.4999 0C5.87253 0 0.499945 5.37258 0.499945 12ZM57.5 180L70.9374 157.764L44.9618 157.245L57.5 180ZM12.4999 12C10.2564 11.8298 10.2563 11.8305 10.2563 11.8316C10.2562 11.8325 10.2561 11.8341 10.2559 11.836C10.2556 11.8397 10.2552 11.8452 10.2547 11.8523C10.2536 11.8666 10.2521 11.8876 10.25 11.9152C10.2459 11.9704 10.24 12.052 10.2323 12.1591C10.2169 12.3733 10.1946 12.6893 10.1668 13.0995C10.1114 13.9199 10.034 15.1173 9.9462 16.6304C9.77059 19.6561 9.55293 23.9464 9.38434 29.011C9.04749 39.1303 8.90497 52.383 9.69296 64.8295C10.4736 77.1595 12.1841 89.0948 15.7583 96.318C17.5398 99.9182 20.0608 102.904 23.6815 103.639C27.3208 104.379 31.127 102.657 35.005 99.1737L31.9977 95.8261C28.5009 98.9674 26.1198 99.5428 24.5775 99.2295C23.0165 98.9123 21.3617 97.4955 19.7915 94.3223C16.6624 87.9986 14.9663 76.9027 14.184 64.5452C13.409 52.3043 13.5472 39.2133 13.8819 29.1607C14.049 24.1395 14.2648 19.8868 14.4386 16.8911C14.5256 15.3934 14.602 14.2104 14.6566 13.4032C14.6839 12.9995 14.7057 12.6899 14.7207 12.4818C14.7282 12.3778 14.7339 12.2992 14.7378 12.2469C14.7397 12.2208 14.7412 12.2013 14.7421 12.1885C14.7426 12.182 14.743 12.1773 14.7432 12.1743C14.7433 12.1727 14.7434 12.1717 14.7434 12.171C14.7435 12.1704 14.7435 12.1702 12.4999 12ZM35.005 99.1737C37.4955 96.9364 39.4917 95.9433 41.0316 95.6759C42.4663 95.4268 43.6925 95.7709 44.8738 96.7029C46.1296 97.6937 47.36 99.3811 48.5043 101.818C49.6382 104.233 50.6198 107.237 51.4578 110.695C54.8259 124.591 55.6212 144.687 55.6547 159.756L60.1547 159.746C60.1212 144.671 59.337 124.099 55.8312 109.635C54.9508 106.002 53.883 102.686 52.5776 99.9054C51.2825 97.1473 49.6836 94.7657 47.661 93.17C45.5639 91.5155 43.0626 90.7559 40.2616 91.2423C37.5659 91.7104 34.8183 93.2923 31.9977 95.8261L35.005 99.1737Z" fill="#FC5185"/>
</svg>
