<svg width="56" height="125" viewBox="0 0 56 125" fill="none" xmlns="http://www.w3.org/2000/svg">
<path d="M48.2671 124.249C42.607 125.882 36.6946 122.617 35.0613 116.957C33.4281 111.297 36.6926 105.385 42.3527 103.751C48.0128 102.118 53.9252 105.383 55.5584 111.043C57.1917 116.703 53.9272 122.615 48.2671 124.249ZM21.7671 21.2486C16.107 22.8819 10.1946 19.6174 8.56135 13.9573C6.92814 8.29717 10.1926 2.38476 15.8527 0.751547C21.5128 -0.881665 27.4252 2.38279 29.0585 8.04291C30.6917 13.703 27.4272 19.6154 21.7671 21.2486ZM44.1843 115.653C26.4412 103.573 10.8648 86.3759 4.12875 67.5221C-2.65958 48.5219 -0.416738 27.9163 17.3756 9.60631L20.2442 12.3939C3.59725 29.5253 1.57941 48.4977 7.89556 66.1763C14.264 84.0011 29.1573 100.583 46.4355 112.347L44.1843 115.653Z" fill="#FC5185"/>
</svg>
