<svg width="137" height="152" viewBox="0 0 137 152" fill="none" xmlns="http://www.w3.org/2000/svg">
<path d="M19.5164 131.462L112.561 128.951L110.429 50.2481L63.1173 21.9624L17.384 52.7593L19.5164 131.462Z" fill="#FC5185"/>
<path opacity="0.2" d="M19.5164 131.462L112.561 128.951L110.429 50.2481L63.1173 21.9624L17.384 52.7593L19.5164 131.462Z" fill="black"/>
<path d="M24.5898 125.297L107.142 123.082L104.295 17.1136L42.9977 18.7629L22.287 39.5309L24.5898 125.297Z" fill="#EBEBEB"/>
<path d="M42.9975 18.7629L22.2868 39.5309L43.5452 38.9486L42.9975 18.7629Z" fill="#DBDBDB"/>
<path d="M64.1609 43.6161C61.6525 43.6274 59.171 44.1341 56.8591 45.1073C54.5471 46.0804 52.4502 47.5008 50.6888 49.2867C48.9274 51.0727 47.5362 53.1891 46.5952 55.5143C45.6542 57.8396 45.1818 60.3278 45.2053 62.8361C45.21 65.8633 45.9244 68.8472 47.2913 71.5483C48.4036 73.486 50.1641 74.9691 52.2627 75.7361C52.6213 75.8218 52.991 75.8524 53.3588 75.8269C53.9571 75.8478 54.5515 75.7233 55.0912 75.4642C55.6308 75.2051 56.0996 74.8191 56.4575 74.3392C57.0022 73.5708 57.2976 72.6534 57.3034 71.7115L57.2901 69.8534C58.1576 70.8773 59.2362 71.7018 60.4518 72.2705C61.6675 72.8391 62.9916 73.1385 64.3337 73.1482C67.0038 73.0552 69.5324 71.9241 71.3815 69.9956C73.2306 68.067 74.2543 65.4931 74.2349 62.8213C74.2155 60.1496 73.1545 57.5908 71.2775 55.6893C69.4006 53.7878 66.8559 52.6937 64.1846 52.6395C61.5542 52.7367 59.0697 53.8733 57.2762 55.7999C55.4826 57.7266 54.5265 60.2859 54.6176 62.9166L54.6242 63.3475L54.5656 63.6092L54.6912 71.4874C54.7078 71.9076 54.6144 72.3248 54.4202 72.6978C54.2671 72.9212 53.9905 73.0826 53.4414 73.0799L53.0105 73.0865C51.6234 72.5998 50.4762 71.5989 49.806 70.2905C48.6076 67.9962 47.9993 65.4397 48.0361 62.8516C48.0161 59.5985 48.9613 56.4125 50.7524 53.6968C52.5435 50.9811 55.0999 48.8577 58.0981 47.5952C61.0962 46.3327 64.4015 45.9879 67.5957 46.6044C70.7899 47.2209 73.7295 48.7709 76.0425 51.0585C78.3555 53.346 79.938 56.2683 80.5899 59.4554C81.2417 62.6426 80.9335 65.9515 79.7043 68.9635C78.4751 71.9755 76.3802 74.5552 73.6845 76.3762C70.9888 78.1973 67.8135 79.1778 64.5604 79.1938C63.1868 79.254 61.8116 79.1195 60.4757 78.7946C59.756 78.6334 58.9954 78.9613 58.9451 79.723C58.8874 79.8896 58.8669 80.0668 58.885 80.2422C58.9032 80.4176 58.9595 80.5868 59.05 80.7381C59.1406 80.8894 59.2632 81.019 59.4093 81.1177C59.5553 81.2165 59.7212 81.2821 59.8953 81.3099C62.5274 81.9593 65.2675 82.0413 67.9337 81.5503C70.5998 81.0593 73.131 80.0067 75.3591 78.4623C77.5871 76.9178 79.4611 74.917 80.8564 72.5927C82.2517 70.2683 83.1366 67.6737 83.4521 64.9811C83.7676 62.2886 83.5065 59.5597 82.6863 56.9757C81.8661 54.3918 80.5054 52.012 78.6947 49.9943C76.884 47.9767 74.6647 46.3674 72.1843 45.2734C69.7038 44.1794 67.019 43.6257 64.3081 43.6491L64.1609 43.6161ZM64.3494 70.1628C62.4351 70.1079 60.6204 69.297 59.3026 67.9074C57.9848 66.5178 57.2712 64.6627 57.3178 62.7482C57.2456 60.84 57.9215 58.979 59.2014 57.5618C60.4813 56.1446 62.264 55.2832 64.1697 55.1612C66.0719 55.2451 67.8644 56.0748 69.1594 57.4706C70.4543 58.8665 71.1474 60.7162 71.0885 62.6193C71.1939 64.513 70.5433 66.3711 69.2797 67.7855C68.0162 69.1999 66.2429 70.0549 64.3494 70.1628Z" fill="#620AF2"/>
<path d="M17.9198 72.4612L19.5163 131.462L112.561 128.951L110.957 69.9827C106.994 72.3417 103.155 74.8319 99.2623 77.2583C95.3695 79.6847 91.5074 82.2039 87.6653 84.7105C83.3713 87.4708 79.0894 90.2796 74.8195 93.1369L74.6723 93.104L74.8031 93.1333C71.6047 95.2457 68.399 97.3908 65.1859 99.5686C61.88 97.6088 58.5742 95.6491 55.261 93.722L55.2867 93.6075L55.1502 93.68C50.7399 91.0779 46.3127 88.5006 41.8684 85.9482C37.8916 83.6607 33.9032 81.3992 29.9032 79.1638C25.9997 76.8813 21.9744 74.6058 17.9198 72.4612Z" fill="#FC5185"/>
<g opacity="0.2">
<path d="M17.9198 72.4609C21.7411 75.0342 25.6553 77.4222 29.5112 79.9174C33.3671 82.4126 37.2813 84.8006 41.1919 87.205C45.1025 89.6093 49.3636 92.2124 53.4632 94.6934L53.8392 94.9322L64.7411 101.478L65.2733 101.787L65.7774 101.453L76.3049 94.3281L76.6725 94.0669C80.6403 91.3824 84.5924 88.6658 88.5288 85.917C92.2874 83.3231 96.046 80.7292 99.7938 78.0298C103.542 75.3304 107.275 72.6965 110.965 69.9497C107.001 72.3088 103.163 74.7989 99.2697 77.2253C95.3769 79.6518 91.5148 82.171 87.6727 84.6775C83.3787 87.4378 79.0968 90.2466 74.8269 93.104C71.6285 95.2164 68.4227 97.3615 65.2096 99.5393C61.9038 97.5795 58.5979 95.6198 55.2847 93.6927C50.8745 91.0906 46.4472 88.5133 42.003 85.9608C38.0261 83.6733 34.0377 81.4119 30.0378 79.1765C25.9998 76.881 21.9745 74.6055 17.9198 72.4609Z" fill="black"/>
<path d="M74.6907 93.0225L74.8215 93.0518L76.2705 94.2523C78.6407 96.1457 81.0934 97.9774 83.6287 99.7475C86.5779 101.919 89.7326 104.017 92.8419 106.087C95.9513 108.158 99.0533 110.261 102.279 112.117C105.505 113.973 108.709 115.927 112.015 117.732C109.11 115.364 106.179 113.11 103.112 110.929C100.045 108.748 96.9882 106.672 93.8952 104.606C90.8022 102.539 87.6419 100.543 84.4305 98.6215C81.8912 97.0739 79.3083 95.568 76.6706 94.1529L74.8249 93.19L74.6907 93.0225Z" fill="black"/>
<path d="M19.4237 120.139C22.6629 118.253 25.8043 116.191 28.8676 114.094C31.9308 111.997 34.976 109.827 37.9921 107.634C41.0083 105.441 43.961 103.147 46.8555 100.807C49.2203 98.9142 51.5633 96.9652 53.8392 94.9326C54.329 94.5097 54.8061 94.0669 55.2794 93.6404L55.3051 93.5259L55.1686 93.5984L53.3815 94.6755C50.8173 96.2313 48.3365 97.8746 45.8648 99.5542C42.7688 101.644 39.7564 103.821 36.7383 106.099C33.7202 108.378 30.7732 110.57 27.8749 112.927C24.9767 115.284 22.1913 117.598 19.4237 120.139Z" fill="black"/>
</g>
</svg>
