<svg width="96" height="69" viewBox="0 0 96 69" fill="none" xmlns="http://www.w3.org/2000/svg">
<path d="M91.9751 2.8413L1.93797 4.23975L2.88063 64.9315L92.9178 63.5331L91.9751 2.8413Z" fill="#FC5185"/>
<path d="M92.2681 3.56744C92.02 3.86658 91.7431 4.14059 91.4413 4.38552L88.9678 6.62354L79.782 14.7429L49.1341 41.3412L48.8782 41.5604L48.6141 41.3573L47.9804 40.861L15.5184 15.6126C11.4425 12.3883 8.12699 9.76171 5.7401 7.88961L3.11272 5.75015C2.79249 5.51843 2.49623 5.25526 2.22838 4.96457C2.57401 5.15757 2.90364 5.3779 3.21412 5.62347L5.9436 7.61463L15.8798 15.137L48.4777 40.1949L49.1222 40.6915L48.6032 40.6751L79.3967 14.2653L88.7601 6.34639L91.337 4.26318C91.6222 3.99937 91.9343 3.76618 92.2681 3.56744V3.56744Z" fill="white"/>
<path d="M3.16753 65.6591C2.99897 65.513 9.64022 57.0859 18.0057 46.8409C26.3712 36.5959 33.2972 28.4051 33.4661 28.5403C33.635 28.6755 27.0042 37.1138 18.6387 47.3588C10.2732 57.6038 3.34724 65.7946 3.16753 65.6591Z" fill="white"/>
<path d="M63.3877 27.3211C63.5655 27.1752 70.386 35.335 78.6142 45.5308C86.8424 55.7266 93.3851 64.1158 93.1749 64.2607C92.9646 64.4056 86.1873 56.2471 77.9487 46.0401C69.7101 35.8332 63.2099 27.467 63.3877 27.3211Z" fill="white"/>
</svg>
