<svg width="106" height="105" viewBox="0 0 106 105" fill="none" xmlns="http://www.w3.org/2000/svg">
<path d="M24.1498 87.7662C25.2575 87.0846 26.5327 86.7237 27.8334 86.7237C29.134 86.7237 30.4092 87.0846 31.5169 87.7662C32.1371 88.1421 32.7761 88.4992 33.3963 88.8563C34.0165 89.2134 34.7118 89.5328 35.3696 89.8335C36.5487 90.3757 37.5551 91.2329 38.278 92.3107C39.001 93.3884 39.4123 94.6448 39.4666 95.9415L39.7485 105L69.2545 104.135L69.0102 94.983C68.9831 93.6817 69.3208 92.3988 69.9851 91.2795C70.6494 90.1602 71.6137 89.2492 72.7689 88.6495C74.0654 87.973 75.3205 87.2199 76.5276 86.3943C77.5934 85.6313 78.8503 85.1798 80.158 85.0902C81.4656 85.0005 82.7724 85.2764 83.9323 85.8869L91.8069 90.1718L105.771 64.1051L97.802 59.8389C96.6349 59.219 95.6645 58.2851 95.0002 57.1427C94.336 56.0003 94.0046 54.6948 94.0433 53.3739C94.0683 51.9377 94.0181 50.5012 93.8929 49.0702C93.765 47.7829 93.9957 46.4853 94.5596 45.3211C95.1235 44.1568 95.9985 43.1713 97.0879 42.4736L104.962 37.6624L89.3825 12.5353L81.6395 17.3277C80.551 17.9958 79.2989 18.3494 78.0217 18.3494C76.7446 18.3494 75.4924 17.9958 74.404 17.3277C73.7462 16.9143 73.0884 16.5384 72.4118 16.1813C71.7353 15.8242 71.0399 15.4672 70.3445 15.1477C69.1795 14.6073 68.1879 13.7532 67.4809 12.681C66.7738 11.6089 66.3793 10.3611 66.3415 9.07733L66.0596 0L36.4784 1.01486L36.7603 10.0546C36.8083 11.3346 36.4998 12.6027 35.8693 13.7177C35.2388 14.8326 34.3111 15.7506 33.1895 16.3692C31.807 17.1157 30.4703 17.9441 29.1865 18.85C28.1349 19.5785 26.9019 20.0011 25.6246 20.0708C24.3472 20.1405 23.0755 19.8545 21.951 19.2447L13.9825 14.9597L0 41.0265L7.96849 45.3115C9.13702 45.9296 10.1087 46.8631 10.7732 48.006C11.4376 49.1488 11.7681 50.4551 11.7272 51.7764C11.7022 53.2127 11.7524 54.6492 11.8776 56.0802C12.005 57.3721 11.7723 58.674 11.205 59.8417C10.6377 61.0094 9.75819 61.9972 8.66385 62.6956L0.920884 67.4879L16.5008 92.615L24.1498 87.7662ZM30.2389 43.9771C32.0182 39.2364 35.2383 35.1725 39.4466 32.3564C43.6549 29.5404 48.6398 28.1138 53.7007 28.2772C58.7617 28.4406 63.6442 30.1858 67.6621 33.2674C71.6799 36.349 74.6312 40.6122 76.101 45.4577C77.5708 50.3033 77.4853 55.4876 75.8565 60.2821C74.2277 65.0765 71.1375 69.2401 67.0202 72.1875C62.9029 75.135 57.9655 76.7182 52.9019 76.7146C47.8383 76.711 42.9032 75.1208 38.79 72.1675C34.4629 69.0627 31.2776 64.6203 29.7254 59.5257C28.1732 54.431 28.3405 48.9672 30.2014 43.9771H30.2389Z" fill="#6233DF" fill-opacity="0.1"/>
</svg>
