<svg width="719" height="756" viewBox="0 0 719 756" fill="none" xmlns="http://www.w3.org/2000/svg">
<g opacity="0.3">
<path d="M65.6482 615.196H2V65.6482V2H758.016V65.6482V214.678H936.542V278.326H758.016V304.717L775.093 306.269L799.931 315.584L812.35 324.898L821.665 334.213L830.979 349.737L837.189 362.156L840.293 377.68V402.518L834.084 414.937L830.979 427.356L820.112 438.223L799.931 456.852L776.645 464.614L768.883 467.719H756.464V616.749H296.955V663.32H310.927V691.263H282.984V675.74H180.525V827.874H938.094V773.54H478.585V787.512H449.09V759.569H463.838L464.614 688.159H452.195V660.216H477.033V672.635H939.647H1011.06V658.663H1039V686.606H1025.03V759.116L1039 759.569V787.512H1011.06V773.54H938.094V827.874H180.525V675.74H79.6198V691.263H51.6766V663.32H65.6482V615.196Z" fill="#673DE6" fill-opacity="0.1"/>
<path d="M65.6482 615.196H2V65.6482M65.6482 615.196V466.166M65.6482 615.196V663.32M65.6482 466.166H53.229V436.671H79.6198V449.09M65.6482 466.166H79.6198V449.09M79.6198 449.09H181.302M282.984 449.09V436.671H310.927V464.614H296.955M282.984 449.09V464.614H296.955M282.984 449.09H181.302M296.955 464.614V616.749M296.955 616.749V663.32M296.955 616.749H756.464V467.719M296.955 663.32V663.869H282.984V675.74M296.955 663.32H310.927V691.263H282.984V675.74M282.984 675.74H180.525M180.525 675.74H79.6198M180.525 675.74V827.874H938.094V773.54M65.6482 663.32H79.6198V675.74M65.6482 663.32H51.6766V691.263H79.6198V675.74M938.094 773.54H478.585M938.094 773.54H1011.06M478.585 773.54V759.569H463.838M478.585 773.54V787.512H449.09V759.569H463.838M463.838 759.569L464.614 688.159M464.614 688.159H477.033V672.635M464.614 688.159H452.195V660.216H477.033V672.635M477.033 672.635H939.647M1011.06 672.635V658.663H1039V686.606H1025.03M1011.06 672.635V686.606H1025.03M1011.06 672.635H939.647M1025.03 686.606V759.116M1025.03 759.116L1039 759.569V787.512H1011.06V773.54M1025.03 759.116V759.569H1011.06V773.54M758.016 65.6482V2H2V65.6482M758.016 65.6482H2M758.016 65.6482V214.678M733.178 23.7335L727.745 29.9431M722.311 36.1527L727.745 29.9431M727.745 29.9431L722.311 23.7335M727.745 29.9431L733.178 34.6003M758.016 214.678H936.542V278.326M758.016 214.678V278.326M758.016 214.678H182.078C182.078 264.355 182.078 277.809 182.078 278.326M936.542 278.326H758.016M936.542 278.326L938.094 463.061M758.016 278.326H182.078M758.016 278.326V304.717M182.078 278.326L181.302 449.09M758.016 304.717L775.093 306.269L799.931 315.584L812.35 324.898L821.665 334.213L830.979 349.737L837.189 362.156L840.293 377.68V402.518L834.084 414.937L830.979 427.356L820.112 438.223L799.931 456.852L776.645 464.614L768.883 467.719H756.464M758.016 304.717L737.835 306.269L725.416 312.479L703.683 326.451L688.159 341.975C688.159 341.975 687.538 343.837 685.054 351.289C682.57 358.74 681.949 360.603 681.949 360.603L678.844 368.365V405.623L681.949 411.832L697.473 439.775L711.445 453.747L731.626 461.509L744.045 467.719H756.464M900.837 554.653H939.647M978.457 554.653H939.647M939.647 554.653V672.635M900.837 508.081H939.647M978.457 508.081H939.647M939.647 508.081L938.094 463.061M938.094 463.061H900.837H978.457H938.094ZM911.704 234.859L902.389 247.278L908.599 241.069M908.599 241.069L911.704 247.278L902.389 234.859L908.599 241.069ZM112.22 515.843L119.982 498.766L138.611 492.557L219.335 576.386V591.91L255.04 626.063V636.93L247.278 635.377L210.021 601.225L197.602 602.777L112.22 515.843ZM730.073 427.356H737.835L756.464 396.308L787.512 346.632V343.527H778.198L770.436 355.946L730.073 425.804V427.356ZM731.626 374.575H740.94L744.045 369.918V355.946L740.94 352.841L734.731 349.737L731.626 352.841L726.969 357.499L725.416 363.708V368.365L728.521 373.022L731.626 374.575ZM725.416 380.784L734.731 383.889L739.388 385.442C738.87 385.442 739.077 384.51 744.045 380.784C749.013 377.059 751.289 374.057 751.807 373.022L753.359 365.26V355.946L744.045 343.527H728.521L719.207 352.841L716.102 359.051V368.365L719.207 373.022L725.416 380.784ZM762.674 399.413V418.042L771.988 427.356H787.512L793.722 424.251L796.826 411.832V396.308L792.169 393.204L787.512 390.099H778.198H773.54L768.883 391.651L762.674 399.413ZM771.988 399.413L770.436 405.623L768.883 408.728V413.385L771.988 416.49L775.093 419.594H779.75H784.407C784.407 420.112 785.028 420.215 787.512 416.49C789.996 412.764 789.582 406.658 789.064 404.07L787.512 397.861L782.855 396.308H775.093L771.988 397.861V399.413ZM528.262 726.969H964.485V720.759H528.262V726.969ZM144.82 601.225H154.135L160.344 595.015V585.701L157.24 579.491H144.82L138.611 585.701V595.015L144.82 601.225ZM216.231 247.278L213.126 250.383H210.021L206.916 247.278L203.811 244.174V241.069L206.916 237.964L210.021 234.859H213.126L216.231 237.964V247.278ZM228.65 241.069L230.202 244.174L233.307 248.831L234.859 250.383H237.964L241.069 247.278L244.174 244.174V241.069L242.621 237.964L239.516 236.412L234.859 234.859L231.754 237.964L228.65 241.069ZM256.593 247.278L255.04 244.174L253.488 241.069C252.971 240.034 252.867 237.654 256.593 236.412C260.319 235.17 264.355 234.859 265.907 234.859L269.012 239.516V244.174L265.907 248.831L262.802 250.383H259.698L256.593 247.278ZM29.9431 39.2575H33.0479L36.1527 36.1527L37.7051 34.6003V26.8383L34.6003 23.7335H29.9431H26.8383L25.2859 26.8383V29.9431V33.0479V36.1527L29.9431 39.2575ZM51.6766 26.8383L48.5719 29.9431V33.0479L51.6766 36.1527C52.1941 37.1876 53.85 39.2575 56.3338 39.2575C58.8177 39.2575 60.4736 38.2226 60.991 37.7051L62.5434 34.6003L64.0958 29.9431L62.5434 26.8383L57.8862 23.7335H54.7814L51.6766 26.8383ZM74.9626 29.9431V34.6003L78.0674 37.7051L81.1722 39.2575L84.2769 37.7051L85.8293 34.6003L87.3817 29.9431L85.8293 25.2859L82.7245 23.7335H79.6198L76.515 25.2859L74.9626 29.9431Z" stroke="white" stroke-width="3.10479"/>
</g>
</svg>
