<svg width="1160" height="939" viewBox="0 0 1160 939" fill="none" xmlns="http://www.w3.org/2000/svg">
<path d="M1054.5 386H301V936H1054.5V386Z" fill="#6233DF" fill-opacity="0.1" stroke="white"/>
<path d="M182.735 723.032H119V172.735V109H876.047V172.735V321.968H1054.82V385.703H876.047V412.13L893.147 413.684L918.019 423.011L930.455 432.338L939.782 441.665L949.109 457.211L955.327 469.647L958.436 485.192V510.064L952.218 522.5L949.109 534.936L938.227 545.818L918.019 564.472L894.701 572.244L886.929 575.353H874.492V724.586H414.357V771.222H428.348V799.203H400.367V783.658H297.769V936H1056.37V881.592H596.235V895.583H566.699V867.602H581.467L582.244 796.094H569.808V768.113H594.68V780.549H1057.92H1129.43V766.558H1157.41V794.539H1143.42V867.148L1157.41 867.602V895.583H1129.43V881.592H1056.37V936H297.769V783.658H196.726V799.203H168.744V771.222H182.735V723.032Z" fill="#6233DF" fill-opacity="0.1"/>
<path d="M182.735 723.032H119V172.735M182.735 723.032V573.799M182.735 723.032V771.222M182.735 573.799H170.299V544.263H196.726V556.699M182.735 573.799H196.726V556.699M196.726 556.699H298.546M400.367 556.699V544.263H428.348V572.244H414.357M400.367 556.699V572.244H414.357M400.367 556.699H298.546M414.357 572.244V724.586M414.357 724.586V771.222M414.357 724.586H874.492V575.353M414.357 771.222V771.771H400.367V783.658M414.357 771.222H428.348V799.203H400.367V783.658M400.367 783.658H297.769M297.769 783.658H196.726M297.769 783.658V936H1056.37V881.592M182.735 771.222H196.726V783.658M182.735 771.222H168.744V799.203H196.726V783.658M1056.37 881.592H596.235M1056.37 881.592H1129.43M596.235 881.592V867.602H581.467M596.235 881.592V895.583H566.699V867.602H581.467M581.467 867.602L582.244 796.094M582.244 796.094H594.68V780.549M582.244 796.094H569.808V768.113H594.68V780.549M594.68 780.549H1057.92M1129.43 780.549V766.558H1157.41V794.539H1143.42M1129.43 780.549V794.539H1143.42M1129.43 780.549H1057.92M1143.42 794.539V867.148M1143.42 867.148L1157.41 867.602V895.583H1129.43V881.592M1143.42 867.148V867.602H1129.43V881.592M876.047 172.735V109H119V172.735M876.047 172.735H119M876.047 172.735V321.968M851.175 130.763L845.734 136.981M840.293 143.199L845.734 136.981M845.734 136.981L840.293 130.763M845.734 136.981L851.175 141.645M876.047 321.968H1054.82V385.703M876.047 321.968V385.703M876.047 321.968H299.323C299.323 371.712 299.323 385.185 299.323 385.703M1054.82 385.703H876.047M1054.82 385.703L1056.37 570.69M876.047 385.703H299.323M876.047 385.703V412.13M299.323 385.703L298.546 556.699M876.047 412.13L893.147 413.684L918.019 423.011L930.455 432.338L939.782 441.665L949.109 457.211L955.327 469.647L958.436 485.192V510.064L952.218 522.5L949.109 534.936L938.227 545.818L918.019 564.472L894.701 572.244L886.929 575.353H874.492M876.047 412.13L855.838 413.684L843.402 419.902L821.639 433.893L806.094 449.438C806.094 449.438 805.472 451.303 802.985 458.765C800.498 466.227 799.876 468.092 799.876 468.092L796.767 475.865V513.173L799.876 519.391L815.421 547.372L829.412 561.363L849.62 569.135L862.056 575.353H874.492M1019.06 662.406H1057.92M1096.79 662.406H1057.92M1057.92 662.406V780.549M1019.06 615.771H1057.92M1096.79 615.771H1057.92M1057.92 615.771L1056.37 570.69M1056.37 570.69H1019.06H1096.79H1056.37ZM1029.94 342.177L1020.62 354.613L1026.83 348.395M1026.83 348.395L1029.94 354.613L1020.62 342.177L1026.83 348.395ZM229.37 623.543L237.143 606.444L255.797 600.226L336.632 684.169V699.714L372.385 733.914V744.795L364.613 743.241L327.305 709.041L314.868 710.596L229.37 623.543ZM848.066 534.936H855.838L874.492 503.846L905.583 454.102V450.992H896.256L888.483 463.429L848.066 533.382V534.936ZM849.62 482.083H858.947L862.056 477.419V463.429L858.947 460.32L852.729 457.211L849.62 460.32L844.957 464.983L843.402 471.201V475.865L846.511 480.528L849.62 482.083ZM843.402 488.301L852.729 491.41L857.393 492.964C856.875 492.964 857.082 492.032 862.056 488.301C867.031 484.57 869.311 481.565 869.829 480.528L871.383 472.756V463.429L862.056 450.992H846.511L837.184 460.32L834.075 466.538V475.865L837.184 480.528L843.402 488.301ZM880.711 506.955V525.609L890.038 534.936H905.583L911.801 531.827L914.91 519.391V503.846L910.246 500.737L905.583 497.628H896.256H891.592L886.929 499.182L880.711 506.955ZM890.038 506.955L888.483 513.173L886.929 516.282V520.945L890.038 524.055L893.147 527.164H897.81H902.474C902.474 527.682 903.095 527.785 905.583 524.055C908.07 520.324 907.655 514.209 907.137 511.618L905.583 505.4L900.919 503.846H893.147L890.038 505.4V506.955ZM645.979 834.957H1082.8V828.739H645.979V834.957ZM262.015 709.041H271.342L277.56 702.823V693.496L274.451 687.278H262.015L255.797 693.496V702.823L262.015 709.041ZM333.523 354.613L330.414 357.722H327.305L324.195 354.613L321.086 351.504V348.395L324.195 345.286L327.305 342.177H330.414L333.523 345.286V354.613ZM345.959 348.395L347.513 351.504L350.622 356.167L352.177 357.722H355.286L358.395 354.613L361.504 351.504V348.395L359.949 345.286L356.84 343.731L352.177 342.177L349.068 345.286L345.959 348.395ZM373.94 354.613L372.385 351.504L370.831 348.395C370.313 347.358 370.209 344.975 373.94 343.731C377.671 342.488 381.712 342.177 383.267 342.177L386.376 346.84V351.504L383.267 356.167L380.158 357.722H377.049L373.94 354.613ZM146.981 146.308H150.09L153.199 143.199L154.754 141.645V133.872L151.645 130.763H146.981H143.872L142.318 133.872V136.981V140.09V143.199L146.981 146.308ZM168.744 133.872L165.635 136.981V140.09L168.744 143.199C169.263 144.236 170.921 146.308 173.408 146.308C175.895 146.308 177.553 145.272 178.071 144.754L179.626 141.645L181.18 136.981L179.626 133.872L174.962 130.763H171.853L168.744 133.872ZM192.062 136.981V141.645L195.171 144.754L198.28 146.308L201.389 144.754L202.944 141.645L204.498 136.981L202.944 132.318L199.835 130.763H196.726L193.617 132.318L192.062 136.981Z" stroke="white" stroke-width="4.11"/>
<g filter="url(#filter0_b_120_6)">
<circle cx="139.5" cy="139.5" r="139.5" fill="#FC5185" fill-opacity="0.3"/>
</g>
<g filter="url(#filter1_b_120_6)">
<circle cx="1056.5" cy="617.5" r="100.5" fill="#FC5185" fill-opacity="0.3"/>
</g>
<g filter="url(#filter2_b_120_6)">
<circle cx="693.5" cy="788.5" r="42.5" fill="#FC5185" fill-opacity="0.3"/>
</g>
<g filter="url(#filter3_b_120_6)">
<ellipse cx="501.695" cy="220.429" rx="19.9844" ry="21.4027" transform="rotate(-161.811 501.695 220.429)" fill="#FC5185" fill-opacity="0.3"/>
</g>
<g filter="url(#filter4_b_120_6)">
<circle cx="139.5" cy="788.5" r="69.5" fill="#FC5185" fill-opacity="0.3"/>
</g>
<g filter="url(#filter5_b_120_6)">
<circle cx="873.5" cy="316.5" r="69.5" fill="#FC5185" fill-opacity="0.3"/>
</g>
<path d="M590.15 513.882L572 504V540.235H632.638L614.487 529.941H590.15V513.882Z" fill="white"/>
<path d="M638 545.176L576.125 544.765L594.688 555.059H619.438V571.118L638 581V545.176Z" fill="white"/>
<path d="M590.15 558.353L572 547.647V571.118L590.15 580.588V558.353Z" fill="white"/>
<path d="M619.438 527.059V504.412L638 513.471V538.176L619.438 527.059Z" fill="white"/>
<path d="M590.15 513.882L572 504V540.235H632.638L614.487 529.941H590.15V513.882Z" stroke="white" stroke-width="0.355357"/>
<path d="M638 545.176L576.125 544.765L594.688 555.059H619.438V571.118L638 581V545.176Z" stroke="white" stroke-width="0.355357"/>
<path d="M590.15 558.353L572 547.647V571.118L590.15 580.588V558.353Z" stroke="white" stroke-width="0.355357"/>
<path d="M619.438 527.059V504.412L638 513.471V538.176L619.438 527.059Z" stroke="white" stroke-width="0.355357"/>
<defs>
<filter id="filter0_b_120_6" x="-17" y="-17" width="313" height="313" filterUnits="userSpaceOnUse" color-interpolation-filters="sRGB">
<feFlood flood-opacity="0" result="BackgroundImageFix"/>
<feGaussianBlur in="BackgroundImage" stdDeviation="8.5"/>
<feComposite in2="SourceAlpha" operator="in" result="effect1_backgroundBlur_120_6"/>
<feBlend mode="normal" in="SourceGraphic" in2="effect1_backgroundBlur_120_6" result="shape"/>
</filter>
<filter id="filter1_b_120_6" x="939" y="500" width="235" height="235" filterUnits="userSpaceOnUse" color-interpolation-filters="sRGB">
<feFlood flood-opacity="0" result="BackgroundImageFix"/>
<feGaussianBlur in="BackgroundImage" stdDeviation="8.5"/>
<feComposite in2="SourceAlpha" operator="in" result="effect1_backgroundBlur_120_6"/>
<feBlend mode="normal" in="SourceGraphic" in2="effect1_backgroundBlur_120_6" result="shape"/>
</filter>
<filter id="filter2_b_120_6" x="634" y="729" width="119" height="119" filterUnits="userSpaceOnUse" color-interpolation-filters="sRGB">
<feFlood flood-opacity="0" result="BackgroundImageFix"/>
<feGaussianBlur in="BackgroundImage" stdDeviation="8.5"/>
<feComposite in2="SourceAlpha" operator="in" result="effect1_backgroundBlur_120_6"/>
<feBlend mode="normal" in="SourceGraphic" in2="effect1_backgroundBlur_120_6" result="shape"/>
</filter>
<filter id="filter3_b_120_6" x="464.563" y="182.154" width="74.265" height="76.5487" filterUnits="userSpaceOnUse" color-interpolation-filters="sRGB">
<feFlood flood-opacity="0" result="BackgroundImageFix"/>
<feGaussianBlur in="BackgroundImage" stdDeviation="8.5"/>
<feComposite in2="SourceAlpha" operator="in" result="effect1_backgroundBlur_120_6"/>
<feBlend mode="normal" in="SourceGraphic" in2="effect1_backgroundBlur_120_6" result="shape"/>
</filter>
<filter id="filter4_b_120_6" x="53" y="702" width="173" height="173" filterUnits="userSpaceOnUse" color-interpolation-filters="sRGB">
<feFlood flood-opacity="0" result="BackgroundImageFix"/>
<feGaussianBlur in="BackgroundImage" stdDeviation="8.5"/>
<feComposite in2="SourceAlpha" operator="in" result="effect1_backgroundBlur_120_6"/>
<feBlend mode="normal" in="SourceGraphic" in2="effect1_backgroundBlur_120_6" result="shape"/>
</filter>
<filter id="filter5_b_120_6" x="787" y="230" width="173" height="173" filterUnits="userSpaceOnUse" color-interpolation-filters="sRGB">
<feFlood flood-opacity="0" result="BackgroundImageFix"/>
<feGaussianBlur in="BackgroundImage" stdDeviation="8.5"/>
<feComposite in2="SourceAlpha" operator="in" result="effect1_backgroundBlur_120_6"/>
<feBlend mode="normal" in="SourceGraphic" in2="effect1_backgroundBlur_120_6" result="shape"/>
</filter>
</defs>
</svg>
