<svg width="29" height="26" viewBox="0 0 29 26" fill="none" xmlns="http://www.w3.org/2000/svg">
<path d="M1.17187 0.5C0.522461 0.5 0 1.02246 0 1.67188C0 2.32129 0.522461 2.84375 1.17187 2.84375H3.71582L6.66015 18.2979C6.76758 18.8496 7.25098 19.25 7.8125 19.25H23.8281C24.4775 19.25 25 18.7275 25 18.0781C25 17.4287 24.4775 16.9062 23.8281 16.9062H8.78418L8.33984 14.5625H23.8184C24.5166 14.5625 25.1318 14.0986 25.3223 13.4248L27.959 4.0498C28.2373 3.05371 27.4902 2.0625 26.4551 2.0625H5.95703L5.83984 1.45215C5.73242 0.900391 5.24902 0.5 4.6875 0.5H1.17187ZM8.59375 25.5C9.88769 25.5 10.9375 24.4502 10.9375 23.1562C10.9375 21.8623 9.88769 20.8125 8.59375 20.8125C7.2998 20.8125 6.25 21.8623 6.25 23.1562C6.25 24.4502 7.2998 25.5 8.59375 25.5ZM25 23.1562C25 21.8623 23.9502 20.8125 22.6562 20.8125C21.3623 20.8125 20.3125 21.8623 20.3125 23.1562C20.3125 24.4502 21.3623 25.5 22.6562 25.5C23.9502 25.5 25 24.4502 25 23.1562Z" fill="white"/>
</svg>
