<svg width="28" height="25" viewBox="0 0 28 25" fill="none" xmlns="http://www.w3.org/2000/svg">
<path d="M19.25 3.5H22.75C23.718 3.5 24.5 4.28203 24.5 5.25V19.25C24.5 20.218 23.718 21 22.75 21H19.25C18.282 21 17.5 21.782 17.5 22.75C17.5 23.718 18.282 24.5 19.25 24.5H22.75C25.6484 24.5 28 22.1484 28 19.25V5.25C28 2.35156 25.6484 0 22.75 0H19.25C18.282 0 17.5 0.782031 17.5 1.75C17.5 2.71797 18.282 3.5 19.25 3.5ZM18.8398 13.2016C19.1023 12.9555 19.25 12.6109 19.25 12.25C19.25 11.8891 19.1023 11.5445 18.8398 11.2984L10.9648 3.86094C10.582 3.5 10.0242 3.40156 9.54297 3.60938C9.06172 3.81719 8.75 4.29297 8.75 4.8125V8.75H1.75C0.782031 8.75 0 9.53203 0 10.5V14C0 14.968 0.782031 15.75 1.75 15.75H8.75V19.6875C8.75 20.2125 9.06172 20.6828 9.54297 20.8906C10.0242 21.0984 10.582 21 10.9648 20.6391L18.8398 13.2016Z" fill="white"/>
</svg>
